<svg xmlns="http://www.w3.org/2000/svg" width="1024" height="1024" viewBox="0 0 1024 1024">
<style>path{fill:#000;stroke:none;}</style>
<path d="M 600 547 L 598 547 L 597 546 L 590 546 L 589 547 L 583 548 L 577 552 L 573 558 L 571 558 L 570 557 L 570 547 L 548 547 L 548 636 L 571 636 L 571 581 L 572 580 L 572 577 L 573 575 L 581 568 L 588 567 L 589 566 L 600 567 Z"/>
<path d="M 732 546 L 718 553 L 711 560 L 705 571 L 702 583 L 702 601 L 704 610 L 711 623 L 721 632 L 729 636 L 737 638 L 754 638 L 762 636 L 771 631 L 780 622 L 785 612 L 785 609 L 764 609 L 763 612 L 754 620 L 739 621 L 734 619 L 727 612 L 724 605 L 723 598 L 724 597 L 786 597 L 786 585 L 784 574 L 779 563 L 767 551 L 752 545 Z"/>
<path d="M 635 545 L 619 552 L 608 566 L 603 586 L 604 601 L 607 612 L 612 621 L 620 629 L 631 634 L 644 635 L 655 633 L 670 624 L 670 639 L 663 650 L 654 654 L 642 654 L 635 652 L 628 646 L 627 643 L 607 643 L 607 648 L 611 656 L 618 663 L 625 667 L 639 671 L 662 670 L 676 664 L 685 655 L 690 645 L 691 547 L 670 547 L 671 556 L 668 557 L 656 547 L 649 545 Z"/>
<path d="M 486 545 L 485 546 L 481 546 L 471 550 L 464 555 L 457 563 L 452 573 L 452 576 L 450 581 L 450 602 L 451 603 L 452 610 L 457 620 L 460 624 L 468 631 L 475 635 L 477 635 L 481 637 L 484 637 L 485 638 L 501 638 L 502 637 L 506 637 L 507 636 L 512 635 L 521 630 L 532 618 L 535 612 L 535 610 L 537 606 L 537 602 L 538 601 L 538 582 L 537 581 L 537 577 L 536 576 L 535 571 L 532 565 L 521 553 L 512 548 L 510 548 L 506 546 L 503 546 L 502 545 Z"/>
<path d="M 447 514 L 368 514 L 368 636 L 392 636 L 391 630 L 392 586 L 440 586 L 440 566 L 391 565 L 391 535 L 447 534 Z"/>
<path d="M 506 404 L 496 404 L 495 405 L 492 405 L 485 409 L 480 415 L 478 415 L 477 414 L 477 404 L 456 404 L 456 490 L 455 491 L 455 494 L 478 494 L 478 486 L 477 485 L 477 447 L 478 446 L 478 438 L 479 437 L 480 432 L 487 426 L 493 425 L 494 424 L 502 424 L 503 425 L 507 425 L 507 423 L 506 422 L 506 410 L 507 409 L 507 405 Z"/>
<path d="M 778 404 L 763 412 L 758 417 L 752 427 L 748 443 L 749 464 L 756 479 L 762 486 L 769 491 L 783 496 L 804 495 L 814 491 L 825 482 L 830 474 L 831 466 L 810 467 L 809 470 L 803 476 L 796 479 L 786 479 L 779 476 L 774 471 L 770 462 L 770 455 L 771 454 L 832 454 L 832 439 L 830 430 L 824 418 L 813 408 L 800 403 Z"/>
<path d="M 605 404 L 605 494 L 627 494 L 627 435 L 630 428 L 641 420 L 653 422 L 658 427 L 660 433 L 660 494 L 682 494 L 683 434 L 686 427 L 696 420 L 707 421 L 715 432 L 716 494 L 738 494 L 738 429 L 733 414 L 727 408 L 716 403 L 700 403 L 689 408 L 679 418 L 670 407 L 661 403 L 642 404 L 629 415 L 626 414 L 626 404 Z"/>
<path d="M 525 410 L 520 415 L 516 422 L 515 433 L 523 432 L 536 433 L 536 427 L 541 421 L 546 419 L 557 419 L 562 421 L 567 426 L 568 436 L 564 440 L 537 442 L 526 444 L 520 447 L 514 453 L 511 461 L 511 475 L 515 485 L 523 492 L 535 496 L 553 495 L 560 492 L 565 487 L 568 488 L 568 494 L 590 494 L 590 432 L 588 421 L 585 416 L 578 409 L 563 403 L 541 403 L 534 405 Z"/>
<path d="M 447 371 L 368 371 L 368 494 L 392 494 L 392 443 L 440 443 L 440 423 L 391 422 L 391 392 L 447 391 Z"/>
<path d="M 127 372 L 95 402 L 92 408 L 92 643 L 252 642 L 312 583 L 314 578 L 314 371 Z"/>
</svg>